<svg id="Layer_1" data-name="Layer 1" xmlns="http://www.w3.org/2000/svg" viewBox="0 0 439 504.32"><defs><style>.cls-1{fill:none;stroke:#000;stroke-linecap:round;stroke-linejoin:round;stroke-width:2px;}</style></defs><title>Merkaba</title><path d="M467.62,485c-22.34,0-44.67.1-67-.1-3.88,0-5.94,1.23-7.84,4.54q-33.28,58-66.84,115.92c-3.76,6.51-4.27,6.49-8.14-.21q-33.35-57.74-66.6-115.49c-2-3.48-4.19-4.77-8.21-4.75-44.67.14-89.33.09-134,.08-6.73,0-7-.46-3.67-6.24q33.84-58.61,67.77-117.15c1.54-2.65,1.57-4.5,0-7.16Q139.63,296.8,106.38,239c-1.19-2.08-3.88-4.29-2.67-6.58,1.42-2.7,4.85-1.26,7.37-1.26q66.24-.12,132.49,0c3.72,0,5.59-1.3,7.37-4.4q33.18-57.81,66.61-115.5c.25-.44.49-.88.74-1.31,3.15-5.41,4.15-5.44,7.18-.2q14.63,25.3,29.22,50.6c12.65,21.91,25.4,43.77,37.87,65.78,2.07,3.66,4.3,5,8.56,5C445,231,488.78,231,532.61,231c1.34,0,2.67.06,4,0,4-.15,4.76,1.37,2.75,4.78-5.23,8.9-10.35,17.86-15.51,26.79q-26.46,45.86-53,91.65c-1.66,2.86-1.55,4.83.07,7.61q33.36,57.43,66.5,115c.83,1.44,1.67,2.88,2.48,4.33,1.45,2.59.41,3.72-2.29,3.81-1,0-2,0-3,0Zm-37-69.88c.85-1.35,1.75-2.7,2.56-4.1q49.22-85.15,98.41-170.3c3.3-5.71,3.32-5.73-3-5.73l-196.43.1c-6.46,0-6.47,0-3.18,5.75Q378.12,326,427.31,411.15C428.11,412.53,428.5,414.31,430.58,415.11Zm-217.48-.05c2-.42,2.3-1.85,2.93-3q49.7-86,99.34-172.06c2.75-4.76,2.62-5-3-5Q213.64,235,114.92,235c-5.86,0-5.88.07-2.91,5.22l77.7,134.4Q201.44,394.89,213.1,415.06Zm109,7.68c-33.14,0-66.28,0-99.42-.05-3.85,0-5.16.3-2.77,4.41q49.91,86.13,99.53,172.43c2.07,3.58,2.93,3.48,4.95,0q49.51-86.07,99.2-172c2.69-4.67,2.65-4.72-3.06-4.72Zm-3.29-180.08-98.16,169.9c1.86.86,2.57-.12,3.35-.57q46-26.5,92.06-53c3-1.72,4-3.78,3.94-7.18-.12-34.62-.07-69.25-.1-103.88C319.93,246.49,320.37,245,318.84,242.66Zm6.31.2c-1.81,2-1.19,3.76-1.19,5.3,0,34.46,0,68.92-.14,103.38,0,3.92,1.37,5.95,4.61,7.8,30.15,17.27,60.21,34.69,90.33,52,1.17.68,2.23,2,4.49,1.28Zm95.71,175.2c-1.86-1.34-2.45-1.85-3.13-2.24Q371.29,389,324.87,362.09c-2.43-1.42-4.15-.94-6.35.33q-45.56,26.4-91.15,52.7c-1.09.63-3.07.72-2.84,2.94ZM320,118.55a2.21,2.21,0,0,0-2.46,1.56q-31,53.52-62,107c-2.16,3.71-.73,4,2.55,4,18.64-.08,37.28-.22,55.92.05,4.91.07,6.07-1.49,6.05-6.2-.2-32.28-.11-64.57-.11-96.86Zm4.38-.25a11,11,0,0,0-.37,1.77c0,35.66,0,71.32-.09,107,0,3.52,1.59,4.07,4.58,4.06,18.83-.09,37.66-.05,56.48-.07,5.55,0,5.6-.06,2.76-5Q357.59,174,327.44,121.9C326.73,120.68,326.43,119.05,324.33,118.3ZM529.5,481.11a21.57,21.57,0,0,0-2.41-2.2q-46.41-26.84-92.8-53.69c-2.94-1.72-3.92-.55-5.26,1.81-9.3,16.32-18.71,32.58-28.08,48.87-3,5.16-3,5.18,2.86,5.19l116.34,0Zm-414-.29c1,.1,1.92.26,2.84.26q61.43,0,122.85.07c3.76,0,4.39-.81,2.46-4.11-9.62-16.52-19.21-33.06-28.57-49.73-1.92-3.43-3.44-3.27-6.47-1.51-29.88,17.39-59.85,34.63-89.78,52C117.68,478.44,115.94,478.62,115.52,480.82Zm-3.31-5.35c1.07.08,1.44.23,1.65.11q47-27,93.9-54.06c3.19-1.82,1.91-3.48.69-5.58q-11.64-20.1-23.2-40.24c-2.39-4.14-4.82-8.27-7.73-13.27ZM466.47,362.6c-1.27,2-2.09,3.23-2.82,4.49-9.23,16-18.32,32-27.77,47.87-2.2,3.7-2.05,5.3,1.88,7.53,30.18,17.19,60.21,34.64,90.3,52,.89.51,1.69,1.63,3.46.75Z" transform="translate(-102.44 -105.88)"/><path class="cls-1" d="M219.44,418c1.84,2.22,4.29,2.53,7,2.53q95.51-.06,191,0c3,0,6.17-.43,7.29-2.89,1.2-2.63.76-5.57-1.13-8.76-14.13-23.82-27.83-47.9-41.66-71.9q-25.5-44.25-51-88.5c-1.05-1.81-1.93-3.72-3-5.49-3.48-5.61-8.64-5.7-11.95,0-11.92,20.62-23.65,41.34-35.54,62q-18.92,32.81-38,65.51Q231,390.26,219.43,410c-1.48,2.54-1,5.14-.49,7.76" transform="translate(-102.44 -105.88)"/><path class="cls-1" d="M320.94,235c-2.19-1.83-4.76-2-7.5-2-18.67.06-37.33,0-56,0q-72,0-144,0a17.9,17.9,0,0,0-6.5,1" transform="translate(-102.44 -105.88)"/><path class="cls-1" d="M322.94,235c2.19-1.83,4.76-2,7.5-2,18.67.06,37.33,0,56,0q72,0,144,0a17.9,17.9,0,0,1,6.5,1" transform="translate(-102.44 -105.88)"/><path class="cls-1" d="M111.44,481c1.6,1.87,3.72,2,6,2q62.51,0,125,0a18.06,18.06,0,0,0,5.5-1" transform="translate(-102.44 -105.88)"/><path class="cls-1" d="M532.44,481c-1.6,1.87-3.72,2-6,2q-62.51,0-125,0a18.06,18.06,0,0,1-5.5-1" transform="translate(-102.44 -105.88)"/><path class="cls-1" d="M103.44,233c2.07-.34,3.16.74,4,2.49,6.92,14.19,15.52,27.42,23.43,41,11.54,19.88,22.61,40,34.08,60,14.89,25.89,30,51.68,45,77.5a42.47,42.47,0,0,0,3,4" transform="translate(-102.44 -105.88)"/><path class="cls-1" d="M540.44,233c-2.07-.34-3.16.74-4,2.49-6.92,14.19-15.5,27.43-23.43,41-10.21,17.54-19.95,35.36-30.07,53Q460.3,368.8,437.41,408c-2,3.43-3.5,7.21-6.47,10" transform="translate(-102.44 -105.88)"/><path class="cls-1" d="M214.94,420.5c.15,5.19,3.81,8.81,6.11,12.94,7.88,14.16,16.25,28,24.38,42.06q24.78,42.74,49.5,85.51,12.09,20.94,24,42a6.08,6.08,0,0,0,3,3" transform="translate(-102.44 -105.88)"/><path class="cls-1" d="M428.94,420.5c-.41,5.35-4.12,9.12-6.55,13.47q-11.81,21.12-24,42c-17.77,30.53-35.9,60.87-53.36,91.58-7.68,13.49-15.67,26.81-23.12,40.43" transform="translate(-102.44 -105.88)"/><path class="cls-1" d="M321.94,108V358.25" transform="translate(-102.44 -105.88)"/><path class="cls-1" d="M177.44,360c-6.56,7.29-10.35,16.34-15.36,24.58-9.64,15.88-18.4,32.3-27.66,48.41q-11.83,20.6-24,41c-1.29,2.15-.12,4.05-.44,6" transform="translate(-102.44 -105.88)"/><path class="cls-1" d="M466.44,360c6.6,7.45,10.41,16.63,15.43,25,13.53,22.72,26.26,45.9,39.93,68.54,3.66,6.05,6.84,12.42,10.63,18.42a10.11,10.11,0,0,1,1.51,8" transform="translate(-102.44 -105.88)"/><path class="cls-1" d="M392.44,231.5c-1.07-5.15-4.51-9.1-7.05-13.47-15.78-27.2-31.07-54.68-47.31-81.62-3.4-5.64-6.63-11.49-9.67-17.39-3.81-7.4-9.24-6.32-12.53-.56C302,142.71,288,166.84,273.94,191c-7.16,12.34-14.35,24.66-21.47,37a15.6,15.6,0,0,0-1,3.48" transform="translate(-102.44 -105.88)"/><path class="cls-1" d="M218.94,418c-12.77,5.75-24.29,13.74-36.48,20.54-25.48,14.23-50.32,29.59-76,43.54a5.41,5.41,0,0,1-3,.92" transform="translate(-102.44 -105.88)"/><path class="cls-1" d="M425.44,418c20.72,11.46,41.11,23.48,61.53,35.45,16.86,9.9,34,19.36,50.94,29.1.91.53,1.7.28,2.53.45" transform="translate(-102.44 -105.88)"/><path class="cls-1" d="M423.94,417q-49.24-28.5-98.46-57.07c-2.63-1.53-4.45-1.54-7.08,0-25.27,14.78-50.63,29.4-76,44.07l-22.5,13" transform="translate(-102.44 -105.88)"/></svg>